<?xml version="1.0" encoding="utf-8"?>
<!-- Generator: Adobe Illustrator 16.0.3, SVG Export Plug-In . SVG Version: 6.00 Build 0)  -->
<!DOCTYPE svg PUBLIC "-//W3C//DTD SVG 1.1//EN" "http://www.w3.org/Graphics/SVG/1.1/DTD/svg11.dtd">
<svg version="1.1" id="Artwork" xmlns="http://www.w3.org/2000/svg" xmlns:xlink="http://www.w3.org/1999/xlink" x="0px" y="0px"
	 width="23px" height="12px" viewBox="0 5.5 23 12" enable-background="new 0 5.5 23 12" xml:space="preserve">
<rect y="3.369" display="none" fill="#1A1A18" width="23" height="16.262"/>
<path fill="#FFFFFF" d="M6.301,6.747c1.47,0,2.809,0.567,3.809,1.494c0.016,0.019,0.043,0.002,0.019-0.025
	C9.11,6.822,7.462,5.915,5.603,5.915C2.508,5.915,0,8.424,0,11.519c0,1.508,0.597,2.878,1.566,3.885
	c0.018,0.021,0.046,0.012,0.021-0.022c-0.563-0.875-0.89-1.913-0.89-3.031C0.697,9.255,3.207,6.747,6.301,6.747z"/>
<path fill="#FFFFFF" d="M6.732,16.975c-0.84-0.017-1.687-0.262-2.442-0.755c-2.154-1.405-2.761-4.289-1.355-6.442
	C3.597,8.761,4.589,8.09,5.679,7.811c0.024-0.005,0.028-0.032-0.011-0.03c-1.424,0.084-2.791,0.818-3.63,2.105
	c-1.405,2.152-0.798,5.038,1.355,6.443C4.349,16.951,5.45,17.18,6.5,17.05c0.081-0.013,0.16-0.028,0.238-0.044
	C6.764,17.002,6.774,16.975,6.732,16.975z"/>
<path fill="#FFFFFF" d="M10.58,13.665c-0.091,0.163-0.195,0.32-0.31,0.469c-0.277,0.362-0.621,0.681-1.028,0.937
	c-1.854,1.174-4.307,0.622-5.479-1.233c-0.588-0.929-0.743-2.008-0.517-3.002c0.008-0.031-0.014-0.042-0.031-0.005
	c-0.559,1.188-0.519,2.627,0.235,3.819c1.173,1.854,3.626,2.406,5.48,1.233c0.176-0.111,0.34-0.233,0.492-0.366
	c0.575-0.502,0.977-1.145,1.188-1.843C10.618,13.646,10.597,13.634,10.58,13.665z"/>
<g>
	<g>
		<path fill="#FFFFFF" d="M9.396,12.865L9.295,10.54l-1.251,2.325H7.491l-0.596-2.401l-0.752,2.401H5.209l1.186-3.637h0.969
			l0.57,2.311l1.234-2.311h0.942l0.17,3.637H9.396z"/>
		<path fill="#FFFFFF" d="M11.096,12.865l0.425-2.896h-1.159l0.111-0.741h3.241L13.606,9.97H12.44l-0.43,2.896H11.096z"/>
		<path fill="#FFFFFF" d="M14.857,9.229l-0.276,1.902c-0.048,0.333-0.107,0.967,0.766,0.967c0.414,0,0.808-0.177,0.897-0.779
			l0.315-2.09h0.914l-0.319,2.225c-0.144,0.987-0.839,1.461-1.802,1.461c-1.407,0-1.731-0.871-1.731-1.338
			c0-0.075,0.01-0.302,0.047-0.542l0.271-1.805H14.857L14.857,9.229z"/>
	</g>
</g>
<path fill="#FFFFFF" d="M12.443,13.955h0.003l0.073,0.608h-0.317L12.443,13.955z M12.644,13.668h-0.31l-0.669,1.388h0.321
	l0.133-0.298h0.425l0.043,0.298h0.3L12.644,13.668z"/>
<path fill="#FFFFFF" d="M13.295,14.481c0.042-0.114,0.101-0.166,0.189-0.166c0.091,0,0.146,0.067,0.131,0.166H13.295z M13.865,14.64
	c0.064-0.292-0.09-0.51-0.375-0.51c-0.274,0-0.495,0.222-0.495,0.501c0,0.269,0.178,0.445,0.455,0.445
	c0.094,0,0.204-0.025,0.316-0.068l0.048-0.227c-0.147,0.062-0.252,0.093-0.336,0.093c-0.131,0-0.225-0.085-0.21-0.234H13.865
	L13.865,14.64z"/>
<path fill="#FFFFFF" d="M14.375,14.276l0.006,0.003c0.084-0.104,0.155-0.149,0.219-0.149c0.056,0,0.103,0.027,0.164,0.099
	l-0.127,0.252c-0.045-0.067-0.084-0.099-0.128-0.099c-0.063,0-0.135,0.071-0.165,0.134l-0.075,0.54h-0.272l0.129-0.91h0.271
	L14.375,14.276z"/>
<path fill="#FFFFFF" d="M15.457,14.551c0,0.127-0.076,0.303-0.234,0.303c-0.081,0-0.181-0.063-0.181-0.203
	c0-0.093,0.057-0.301,0.233-0.301C15.386,14.35,15.457,14.432,15.457,14.551z M15.739,14.558c0-0.26-0.189-0.428-0.452-0.428
	c-0.289,0-0.526,0.228-0.526,0.505c0,0.246,0.201,0.441,0.461,0.441C15.515,15.076,15.739,14.851,15.739,14.558z"/>
<path fill="#FFFFFF" d="M17.48,13.915h-0.565l-0.045,0.324h0.495l-0.03,0.229h-0.498l-0.05,0.36h0.71l-0.03,0.228h-1.002l0.19-1.369
	h0.856L17.48,13.915z"/>
<path fill="#FFFFFF" d="M17.995,14.248c0.11-0.084,0.2-0.118,0.311-0.118c0.211,0,0.267,0.177,0.242,0.363l-0.079,0.563h-0.271
	l0.077-0.543c0.011-0.088-0.009-0.184-0.083-0.184c-0.061,0-0.135,0.043-0.228,0.141l-0.081,0.586h-0.272l0.129-0.91h0.271
	L17.995,14.248z"/>
<path fill="#FFFFFF" d="M19.255,14.457c0,0.096-0.031,0.198-0.149,0.198c-0.079,0-0.126-0.047-0.126-0.126
	c0-0.132,0.051-0.203,0.147-0.203C19.205,14.326,19.255,14.378,19.255,14.457z M19.644,14.146h-0.511
	c-0.259,0-0.402,0.176-0.402,0.343c0,0.114,0.05,0.199,0.158,0.264c-0.062,0.016-0.087,0.025-0.117,0.045
	c-0.041,0.028-0.067,0.076-0.067,0.124c0,0.065,0.049,0.132,0.126,0.168c-0.152,0.048-0.225,0.116-0.225,0.203
	c0,0.103,0.083,0.227,0.434,0.227c0.371,0,0.471-0.146,0.471-0.298c0-0.348-0.551-0.244-0.551-0.35c0-0.037,0.033-0.047,0.164-0.047
	c0.262,0,0.383-0.171,0.383-0.334c0-0.052-0.009-0.087-0.034-0.144h0.146L19.644,14.146z M19.009,15.143
	c0.162,0.037,0.246,0.046,0.246,0.115c0,0.063-0.06,0.086-0.212,0.086c-0.141,0-0.202-0.03-0.202-0.095
	C18.843,15.199,18.884,15.158,19.009,15.143z"/>
<path fill="#FFFFFF" d="M19.973,15.056h-0.271l0.126-0.91h0.272L19.973,15.056z M20.137,13.893c0,0.077-0.061,0.141-0.141,0.141
	c-0.077,0-0.14-0.063-0.14-0.141c0-0.08,0.063-0.141,0.14-0.141C20.076,13.752,20.137,13.813,20.137,13.893z"/>
<path fill="#FFFFFF" d="M20.609,14.248c0.109-0.084,0.2-0.118,0.312-0.118c0.21,0,0.266,0.177,0.24,0.363l-0.078,0.563h-0.271
	l0.076-0.543c0.013-0.088-0.008-0.184-0.079-0.184c-0.062,0-0.138,0.043-0.229,0.141l-0.083,0.586h-0.271l0.13-0.91h0.271
	L20.609,14.248z"/>
<path fill="#FFFFFF" d="M21.622,14.481c0.041-0.114,0.103-0.166,0.189-0.166c0.092,0,0.146,0.067,0.131,0.166H21.622z M22.194,14.64
	c0.064-0.292-0.09-0.51-0.376-0.51c-0.274,0-0.495,0.222-0.495,0.501c0,0.269,0.178,0.445,0.454,0.445
	c0.096,0,0.206-0.025,0.318-0.068l0.047-0.227c-0.148,0.062-0.253,0.093-0.337,0.093c-0.13,0-0.223-0.085-0.209-0.234H22.194
	L22.194,14.64z"/>
<path fill="#FFFFFF" d="M22.977,14.426c-0.099-0.05-0.217-0.076-0.264-0.076c-0.034,0-0.06,0.017-0.06,0.039
	c0,0.102,0.304,0.178,0.304,0.398c0,0.168-0.141,0.286-0.341,0.286c-0.109,0-0.202-0.025-0.317-0.083l0.039-0.203
	c0.076,0.028,0.163,0.063,0.249,0.063c0.055,0,0.089-0.02,0.089-0.049c0-0.099-0.306-0.196-0.306-0.377
	c0-0.177,0.141-0.296,0.342-0.296c0.097,0,0.184,0.023,0.287,0.082L22.977,14.426z"/>
</svg>
